HIERARCHY
ROOT Hips
{
	OFFSET 0.000000 0.000000 0.000000
	CHANNELS 6 Xposition Yposition Zposition Zrotation Yrotation Xrotation 
	JOINT LowerBack
	{
		OFFSET 0.000000 0.000000 0.000000
		CHANNELS 3 Zrotation Yrotation Xrotation
		JOINT Spine
		{
			OFFSET 0.028270 2.035590 -0.193380
			CHANNELS 3 Zrotation Yrotation Xrotation
			JOINT Spine1
			{
				OFFSET 0.056720 2.048850 -0.042750
				CHANNELS 3 Zrotation Yrotation Xrotation
				JOINT Neck
				{
					OFFSET 0.000000 0.000000 0.000000
					CHANNELS 3 Zrotation Yrotation Xrotation
					JOINT Neck1
					{
						OFFSET -0.054170 1.746240 0.172020
						CHANNELS 3 Zrotation Yrotation Xrotation
						JOINT Head
						{
							OFFSET 0.104070 1.761360 -0.123970
							CHANNELS 3 Zrotation Yrotation Xrotation
							End Site
							{
								OFFSET 0.000000 0.000000 0.000000
							}
						}
					}
				}
				JOINT LeftShoulder
				{
					OFFSET 0.000000 0.000000 0.000000
					CHANNELS 3 Zrotation Yrotation Xrotation
					JOINT LeftArm
					{
						OFFSET 3.362410 1.200890 -0.311210
						CHANNELS 3 Zrotation Yrotation Xrotation
						JOINT LeftForeArm
						{
							OFFSET 4.983000 -0.000000 -0.000000
							CHANNELS 3 Zrotation Yrotation Xrotation
							JOINT LeftHand
							{
								OFFSET 3.483560 -0.000000 -0.000000
								CHANNELS 3 Zrotation Yrotation Xrotation
								JOINT LeftFingerBase
								{
									OFFSET 0.000000 0.000000 0.000000
									CHANNELS 3 Zrotation Yrotation Xrotation
									JOINT LeftHandIndex1
									{
										OFFSET 0.715260 -0.000000 -0.000000
										CHANNELS 3 Zrotation Yrotation Xrotation
										End Site
										{
											OFFSET 0.000000 0.000000 0.000000
										}
									}
								}
								JOINT LThumb
								{
									OFFSET 0.000000 0.000000 0.000000
									CHANNELS 3 Zrotation Yrotation Xrotation
									End Site
									{
										OFFSET 0.000000 0.000000 0.000000
									}
								}
							}
						}
					}
				}
				JOINT RightShoulder
				{
					OFFSET 0.000000 0.000000 0.000000
					CHANNELS 3 Zrotation Yrotation Xrotation
					JOINT RightArm
					{
						OFFSET -3.136600 1.374050 -0.404650
						CHANNELS 3 Zrotation Yrotation Xrotation
						JOINT RightForeArm
						{
							OFFSET -5.241900 -0.000000 -0.000000
							CHANNELS 3 Zrotation Yrotation Xrotation
							JOINT RightHand
							{
								OFFSET -3.444170 -0.000000 -0.000000
								CHANNELS 3 Zrotation Yrotation Xrotation
								JOINT RightFingerBase
								{
									OFFSET 0.000000 0.000000 0.000000
									CHANNELS 3 Zrotation Yrotation Xrotation
									JOINT RightHandIndex1
									{
										OFFSET -0.622530 -0.000000 -0.000000
										CHANNELS 3 Zrotation Yrotation Xrotation
										End Site
										{
											OFFSET 0.000000 0.000000 0.000000
										}
									}
								}
								JOINT RThumb
								{
									OFFSET 0.000000 0.000000 0.000000
									CHANNELS 3 Zrotation Yrotation Xrotation
									End Site
									{
										OFFSET 0.000000 0.000000 0.000000
									}
								}
							}
						}
					}
				}
			}
		}
	}
}
}
MOTION
Frames: 7
Frame Time: 0.008333
16.353645 18.156898 1.815748 -14.237299 -82.809436 13.177189 -3.986289 -1.789156 1.198030 -0.426210 -1.540868 -1.929483 -0.932878 -1.674745 3.488934 3.220434 -19.951172 -11.679198 2.501077 0.299012 -1.186123 0.000000 0.000000 0.000000 14.871240 18.164532 4.236222 -20.322104 17.156681 -23.932506 -1.769415 -48.996198 0.062508 -12.377245 12.943916 -1.402385 0.116280 0.173522 0.000000 0.000000 0.000000 0.000000 0.000000 0.000000 0.000000 -7.558975 -14.675093 3.258585 24.565167 -15.471679 -18.262953 0.881282 57.711145 0.063858 11.579529 0.788308 0.114329 -0.125138 -0.326542 0.000000 0.000000 0.000000 0.000000 0.000000 0.000000 0.000000 
16.194579 17.908597 1.799270 -16.484400 -82.823831 14.719511 -3.753904 -1.791384 1.089181 -0.432809 -1.558856 -1.957170 -1.146065 -1.694155 3.373821 3.614957 -20.063016 -11.917799 2.362052 0.292899 -1.248892 0.000000 0.000000 0.000000 14.489697 18.290502 4.233430 -21.056984 17.075422 -24.304218 -1.675580 -51.050374 0.063255 -12.682352 13.096486 -1.454392 0.116148 0.171793 0.000000 0.000000 0.000000 0.000000 0.000000 0.000000 0.000000 -6.711356 -14.713888 3.134936 25.210757 -15.257749 -18.418222 0.824805 59.226930 0.061477 11.362773 0.725500 0.105130 -0.122656 -0.319725 0.000000 0.000000 0.000000 0.000000 0.000000 0.000000 0.000000 
16.045544 17.660165 1.779707 -18.551764 -82.855030 16.035630 -3.558650 -1.797870 1.130204 -0.454308 -1.581192 -1.959418 -1.388470 -1.715152 3.241179 4.084007 -20.151536 -12.166563 2.197198 0.284707 -1.314942 0.000000 0.000000 0.000000 14.045246 18.422737 4.216266 -21.932707 16.956335 -24.915768 -1.580434 -53.076422 0.062228 -12.758358 13.236693 -1.478599 0.110501 0.170898 0.000000 0.000000 0.000000 0.000000 0.000000 0.000000 0.000000 -5.717814 -14.716047 2.992743 25.973046 -15.062913 -18.646074 0.764963 60.805027 0.057869 10.864141 0.744738 0.101833 -0.115814 -0.314768 0.000000 0.000000 0.000000 0.000000 0.000000 0.000000 0.000000 
15.906921 17.414457 1.756777 -20.366157 -82.898793 17.080778 -3.408502 -1.813633 1.297078 -0.490499 -1.611464 -1.940333 -1.655188 -1.741711 3.095852 4.614451 -20.221275 -12.412700 2.011445 0.274488 -1.380424 0.000000 0.000000 0.000000 13.544956 18.573512 4.181206 -22.982711 16.761797 -25.729639 -1.485122 -55.046727 0.059510 -12.591806 13.354342 -1.471404 0.099895 0.170933 0.000000 0.000000 0.000000 0.000000 0.000000 0.000000 0.000000 -4.616572 -14.688420 2.827233 26.916264 -14.853160 -18.931541 0.703491 62.388685 0.052922 10.049212 0.892150 0.107042 -0.104423 -0.312245 0.000000 0.000000 0.000000 0.000000 0.000000 0.000000 0.000000 
15.780172 17.174554 1.730023 -21.745941 -82.952833 17.633241 -3.325785 -1.843767 1.632796 -0.544660 -1.653036 -1.890579 -1.942339 -1.776340 2.940020 5.195798 -20.276893 -12.647123 1.810222 0.262516 -1.443370 0.000000 0.000000 0.000000 12.998898 18.761275 4.124546 -24.238330 16.441012 -26.704006 -1.390880 -56.927921 0.055363 -12.192273 13.440787 -1.432403 0.085475 0.171904 0.000000 0.000000 0.000000 0.000000 0.000000 0.000000 0.000000 -3.442790 -14.640368 2.634362 28.114902 -14.584466 -19.265976 0.642774 63.910676 0.046646 8.916994 1.206992 0.119759 -0.088878 -0.312394 0.000000 0.000000 0.000000 0.000000 0.000000 0.000000 0.000000 
15.663617 16.944168 1.700678 -22.870892 -83.004824 17.958175 -3.277052 -1.891141 2.034609 -0.607236 -1.709436 -1.828843 -2.244075 -1.823949 2.784082 5.799943 -20.312973 -12.854140 1.597032 0.248658 -1.498458 0.000000 0.000000 0.000000 12.395665 18.993705 4.044433 -25.700031 15.965651 -27.748290 -1.301900 -58.687783 0.050032 -11.592674 13.487467 -1.364693 0.068359 0.173389 0.000000 0.000000 0.000000 0.000000 0.000000 0.000000 0.000000 -2.244461 -14.574815 2.413172 29.611210 -14.241454 -19.608488 0.587621 65.294455 0.039204 7.504886 1.718305 0.134687 -0.069908 -0.315060 0.000000 0.000000 0.000000 0.000000 0.000000 0.000000 0.000000 
15.556455 16.726733 1.669449 -23.763944 -83.045560 18.077496 -3.251650 -1.957746 2.486479 -0.674173 -1.782794 -1.756957 -2.555980 -1.886521 2.634711 6.405606 -20.326903 -13.023461 1.375532 0.233023 -1.542839 0.000000 0.000000 0.000000 11.728217 19.280178 3.939392 -27.357725 15.303008 -28.777234 -1.222052 -60.282658 0.043895 -10.843443 13.491949 -1.274673 0.049956 0.174880 0.000000 0.000000 0.000000 0.000000 0.000000 0.000000 0.000000 -1.055935 -14.498506 2.164789 31.438822 -13.806145 -19.928949 0.542195 66.457859 0.030917 5.881938 2.440304 0.143132 -0.048707 -0.319719 0.000000 0.000000 0.000000 0.000000 0.000000 0.000000 0.000000 
